%TF.GenerationSoftware,KiCad,Pcbnew,4.0.7-e2-6376~58~ubuntu16.04.1*%
%TF.CreationDate,2017-12-30T21:22:03+10:00*%
%TF.ProjectId,CurrentSensor,43757272656E7453656E736F722E6B69,rev?*%
%TF.FileFunction,Legend,Top*%
%FSLAX46Y46*%
G04 Gerber Fmt 4.6, Leading zero omitted, Abs format (unit mm)*
G04 Created by KiCad (PCBNEW 4.0.7-e2-6376~58~ubuntu16.04.1) date Sat Dec 30 21:22:03 2017*
%MOMM*%
%LPD*%
G01*
G04 APERTURE LIST*
%ADD10C,0.100000*%
%ADD11C,0.120000*%
%ADD12C,0.200000*%
%ADD13C,0.254000*%
%ADD14C,0.150000*%
G04 APERTURE END LIST*
D10*
D11*
X156690000Y-93910000D02*
X156690000Y-89090000D01*
X159310000Y-93910000D02*
X159310000Y-89090000D01*
X156690000Y-93910000D02*
X157004000Y-93910000D01*
X158996000Y-93910000D02*
X159310000Y-93910000D01*
X156690000Y-89090000D02*
X157004000Y-89090000D01*
X158996000Y-89090000D02*
X159310000Y-89090000D01*
X137310000Y-81090000D02*
X137310000Y-85910000D01*
X134690000Y-81090000D02*
X134690000Y-85910000D01*
X137310000Y-81090000D02*
X136996000Y-81090000D01*
X135004000Y-81090000D02*
X134690000Y-81090000D01*
X137310000Y-85910000D02*
X136996000Y-85910000D01*
X135004000Y-85910000D02*
X134690000Y-85910000D01*
X156690000Y-83310000D02*
X156690000Y-78190000D01*
X159310000Y-83310000D02*
X159310000Y-78190000D01*
X156690000Y-83310000D02*
X159310000Y-83310000D01*
X156690000Y-78190000D02*
X159310000Y-78190000D01*
D12*
X142400000Y-87000000D02*
X142400000Y-105000000D01*
X142400000Y-105000000D02*
X153600000Y-105000000D01*
X153600000Y-105000000D02*
X153600000Y-87000000D01*
X153600000Y-87000000D02*
X142400000Y-87000000D01*
D13*
X141916000Y-90875000D02*
G75*
G03X141916000Y-90875000I-193000J0D01*
G01*
D14*
X156715058Y-67000000D02*
G75*
G03X156715058Y-67000000I-215058J0D01*
G01*
X160000000Y-65500000D02*
X161000000Y-65500000D01*
X160000000Y-63500000D02*
X161000000Y-63500000D01*
X160500000Y-63500000D02*
X160500000Y-65500000D01*
X157000000Y-67000000D02*
G75*
G03X157000000Y-67000000I-500000J0D01*
G01*
X159000000Y-67000000D02*
G75*
G03X159000000Y-67000000I-2500000J0D01*
G01*
X167050000Y-69650000D02*
X166850000Y-69300000D01*
X166850000Y-69300000D02*
X166650000Y-69000000D01*
X166650000Y-69000000D02*
X166400000Y-68750000D01*
X166400000Y-68750000D02*
X166200000Y-68500000D01*
X166200000Y-68500000D02*
X166100000Y-68350000D01*
X166100000Y-68350000D02*
X166000000Y-68050000D01*
X160000000Y-74000000D02*
X160300000Y-74050000D01*
X160300000Y-74050000D02*
X160500000Y-74150000D01*
X160500000Y-74150000D02*
X160750000Y-74400000D01*
X160750000Y-74400000D02*
X161100000Y-74700000D01*
X161100000Y-74700000D02*
X161400000Y-74900000D01*
X161400000Y-74900000D02*
X161850000Y-75150000D01*
X161850000Y-75150000D02*
X162400000Y-75350000D01*
X162400000Y-75350000D02*
X162800000Y-75450000D01*
X162800000Y-75450000D02*
X163200000Y-75500000D01*
X163200000Y-75500000D02*
X163700000Y-75500000D01*
X163700000Y-75500000D02*
X164150000Y-75450000D01*
X164150000Y-75450000D02*
X164600000Y-75350000D01*
X164600000Y-75350000D02*
X165050000Y-75200000D01*
X165050000Y-75200000D02*
X165550000Y-74950000D01*
X165550000Y-74950000D02*
X166050000Y-74600000D01*
X166050000Y-74600000D02*
X166500000Y-74150000D01*
X166500000Y-74150000D02*
X166750000Y-73850000D01*
X166750000Y-73850000D02*
X166900000Y-73600000D01*
X166900000Y-73600000D02*
X167150000Y-73150000D01*
X167150000Y-73150000D02*
X167300000Y-72750000D01*
X167300000Y-72750000D02*
X167400000Y-72350000D01*
X167400000Y-72350000D02*
X167450000Y-72050000D01*
X167450000Y-72050000D02*
X167500000Y-71750000D01*
X167500000Y-71750000D02*
X167500000Y-71450000D01*
X167500000Y-71450000D02*
X167500000Y-71150000D01*
X167500000Y-71150000D02*
X167450000Y-70800000D01*
X167450000Y-70800000D02*
X167350000Y-70400000D01*
X167350000Y-70400000D02*
X167200000Y-69950000D01*
X167200000Y-69950000D02*
X167050000Y-69650000D01*
X155000000Y-74000000D02*
X160000000Y-74000000D01*
X139000000Y-74000000D02*
X134000000Y-74000000D01*
X128000000Y-68050000D02*
X127950000Y-68250000D01*
X127950000Y-68250000D02*
X127850000Y-68500000D01*
X127850000Y-68500000D02*
X127650000Y-68700000D01*
X127650000Y-68700000D02*
X127350000Y-69050000D01*
X127350000Y-69050000D02*
X127150000Y-69300000D01*
X127150000Y-69300000D02*
X127000000Y-69550000D01*
X127000000Y-69550000D02*
X126850000Y-69850000D01*
X126850000Y-69850000D02*
X126700000Y-70200000D01*
X126700000Y-70200000D02*
X126550000Y-70800000D01*
X126550000Y-70800000D02*
X126500000Y-71200000D01*
X126500000Y-71200000D02*
X126500000Y-71650000D01*
X126500000Y-71650000D02*
X126550000Y-72050000D01*
X126550000Y-72050000D02*
X126600000Y-72450000D01*
X126600000Y-72450000D02*
X126700000Y-72800000D01*
X126700000Y-72800000D02*
X126900000Y-73250000D01*
X126900000Y-73250000D02*
X127100000Y-73600000D01*
X127100000Y-73600000D02*
X127400000Y-74000000D01*
X127400000Y-74000000D02*
X127700000Y-74350000D01*
X127700000Y-74350000D02*
X128150000Y-74750000D01*
X128150000Y-74750000D02*
X128550000Y-75000000D01*
X128550000Y-75000000D02*
X129100000Y-75250000D01*
X129100000Y-75250000D02*
X129600000Y-75400000D01*
X129600000Y-75400000D02*
X129850000Y-75450000D01*
X129850000Y-75450000D02*
X130400000Y-75500000D01*
X130400000Y-75500000D02*
X130750000Y-75500000D01*
X130750000Y-75500000D02*
X131150000Y-75450000D01*
X131150000Y-75450000D02*
X131500000Y-75400000D01*
X131500000Y-75400000D02*
X132000000Y-75200000D01*
X132000000Y-75200000D02*
X132400000Y-75050000D01*
X132400000Y-75050000D02*
X132700000Y-74850000D01*
X132700000Y-74850000D02*
X133100000Y-74550000D01*
X133100000Y-74550000D02*
X133400000Y-74250000D01*
X133400000Y-74250000D02*
X133650000Y-74100000D01*
X133650000Y-74100000D02*
X134000000Y-74000000D01*
X128000000Y-63000000D02*
X128000000Y-68000000D01*
X133950000Y-36000000D02*
X133700000Y-35950000D01*
X133700000Y-35950000D02*
X133400000Y-35750000D01*
X133400000Y-35750000D02*
X133150000Y-35500000D01*
X133150000Y-35500000D02*
X132900000Y-35300000D01*
X132900000Y-35300000D02*
X132500000Y-35050000D01*
X132500000Y-35050000D02*
X132150000Y-34850000D01*
X132150000Y-34850000D02*
X131700000Y-34700000D01*
X131700000Y-34700000D02*
X131200000Y-34550000D01*
X131200000Y-34550000D02*
X130750000Y-34500000D01*
X130750000Y-34500000D02*
X130250000Y-34500000D01*
X130250000Y-34500000D02*
X129850000Y-34550000D01*
X129850000Y-34550000D02*
X129400000Y-34650000D01*
X129400000Y-34650000D02*
X128950000Y-34800000D01*
X128950000Y-34800000D02*
X128650000Y-34950000D01*
X128650000Y-34950000D02*
X128300000Y-35150000D01*
X128300000Y-35150000D02*
X127900000Y-35450000D01*
X127900000Y-35450000D02*
X127600000Y-35750000D01*
X127600000Y-35750000D02*
X127350000Y-36050000D01*
X127350000Y-36050000D02*
X126950000Y-36650000D01*
X126950000Y-36650000D02*
X126800000Y-36950000D01*
X126800000Y-36950000D02*
X126700000Y-37300000D01*
X126700000Y-37300000D02*
X126600000Y-37600000D01*
X126600000Y-37600000D02*
X126500000Y-38150000D01*
X126500000Y-38150000D02*
X126500000Y-38750000D01*
X126500000Y-38750000D02*
X126600000Y-39350000D01*
X126600000Y-39350000D02*
X126750000Y-39900000D01*
X126750000Y-39900000D02*
X127000000Y-40450000D01*
X127000000Y-40450000D02*
X127250000Y-40850000D01*
X127250000Y-40850000D02*
X127550000Y-41200000D01*
X127550000Y-41200000D02*
X127850000Y-41550000D01*
X127850000Y-41550000D02*
X127950000Y-41750000D01*
X127950000Y-41750000D02*
X128000000Y-41950000D01*
X166000000Y-42050000D02*
X166050000Y-41700000D01*
X166050000Y-41700000D02*
X166400000Y-41300000D01*
X166400000Y-41300000D02*
X166700000Y-40950000D01*
X166700000Y-40950000D02*
X167000000Y-40450000D01*
X167000000Y-40450000D02*
X167250000Y-39950000D01*
X167250000Y-39950000D02*
X167400000Y-39400000D01*
X167400000Y-39400000D02*
X167500000Y-38650000D01*
X167500000Y-38650000D02*
X167500000Y-38250000D01*
X167500000Y-38250000D02*
X167450000Y-37850000D01*
X167450000Y-37850000D02*
X167400000Y-37600000D01*
X167400000Y-37600000D02*
X167300000Y-37250000D01*
X167300000Y-37250000D02*
X167150000Y-36850000D01*
X167150000Y-36850000D02*
X166900000Y-36400000D01*
X166900000Y-36400000D02*
X166700000Y-36100000D01*
X166700000Y-36100000D02*
X166450000Y-35800000D01*
X166450000Y-35800000D02*
X166100000Y-35450000D01*
X166100000Y-35450000D02*
X165850000Y-35250000D01*
X165850000Y-35250000D02*
X165550000Y-35050000D01*
X165550000Y-35050000D02*
X165250000Y-34900000D01*
X165250000Y-34900000D02*
X164900000Y-34750000D01*
X164900000Y-34750000D02*
X164550000Y-34650000D01*
X164550000Y-34650000D02*
X164350000Y-34600000D01*
X164350000Y-34600000D02*
X164050000Y-34550000D01*
X164050000Y-34550000D02*
X163700000Y-34500000D01*
X163700000Y-34500000D02*
X163350000Y-34500000D01*
X163350000Y-34500000D02*
X163150000Y-34500000D01*
X163150000Y-34500000D02*
X162900000Y-34550000D01*
X162900000Y-34550000D02*
X162450000Y-34650000D01*
X162450000Y-34650000D02*
X162100000Y-34750000D01*
X162100000Y-34750000D02*
X161850000Y-34850000D01*
X161850000Y-34850000D02*
X161550000Y-35000000D01*
X161550000Y-35000000D02*
X161250000Y-35200000D01*
X161250000Y-35200000D02*
X160900000Y-35450000D01*
X160900000Y-35450000D02*
X160600000Y-35750000D01*
X160600000Y-35750000D02*
X160400000Y-35900000D01*
X160400000Y-35900000D02*
X160100000Y-36000000D01*
X160100000Y-36000000D02*
X159950000Y-36000000D01*
X128000000Y-42000000D02*
X128000000Y-47000000D01*
X139000000Y-36000000D02*
X134000000Y-36000000D01*
X160000000Y-36000000D02*
X155000000Y-36000000D01*
X166000000Y-47000000D02*
X166000000Y-42000000D01*
X166000000Y-63000000D02*
X166000000Y-68000000D01*
X152000000Y-82000000D02*
X152000000Y-75000000D01*
X152000000Y-82000000D02*
X144000000Y-82000000D01*
X144000000Y-82000000D02*
X144000000Y-75500000D01*
X167500000Y-55000000D02*
G75*
G03X167500000Y-55000000I-20500000J0D01*
G01*
X158500000Y-55000000D02*
G75*
G03X158500000Y-55000000I-11500000J0D01*
G01*
X155797143Y-91666666D02*
X155844762Y-91714285D01*
X155892381Y-91857142D01*
X155892381Y-91952380D01*
X155844762Y-92095238D01*
X155749524Y-92190476D01*
X155654286Y-92238095D01*
X155463810Y-92285714D01*
X155320952Y-92285714D01*
X155130476Y-92238095D01*
X155035238Y-92190476D01*
X154940000Y-92095238D01*
X154892381Y-91952380D01*
X154892381Y-91857142D01*
X154940000Y-91714285D01*
X154987619Y-91666666D01*
X155892381Y-90714285D02*
X155892381Y-91285714D01*
X155892381Y-91000000D02*
X154892381Y-91000000D01*
X155035238Y-91095238D01*
X155130476Y-91190476D01*
X155178095Y-91285714D01*
X138917143Y-83666666D02*
X138964762Y-83714285D01*
X139012381Y-83857142D01*
X139012381Y-83952380D01*
X138964762Y-84095238D01*
X138869524Y-84190476D01*
X138774286Y-84238095D01*
X138583810Y-84285714D01*
X138440952Y-84285714D01*
X138250476Y-84238095D01*
X138155238Y-84190476D01*
X138060000Y-84095238D01*
X138012381Y-83952380D01*
X138012381Y-83857142D01*
X138060000Y-83714285D01*
X138107619Y-83666666D01*
X138107619Y-83285714D02*
X138060000Y-83238095D01*
X138012381Y-83142857D01*
X138012381Y-82904761D01*
X138060000Y-82809523D01*
X138107619Y-82761904D01*
X138202857Y-82714285D01*
X138298095Y-82714285D01*
X138440952Y-82761904D01*
X139012381Y-83333333D01*
X139012381Y-82714285D01*
X155797143Y-80916666D02*
X155844762Y-80964285D01*
X155892381Y-81107142D01*
X155892381Y-81202380D01*
X155844762Y-81345238D01*
X155749524Y-81440476D01*
X155654286Y-81488095D01*
X155463810Y-81535714D01*
X155320952Y-81535714D01*
X155130476Y-81488095D01*
X155035238Y-81440476D01*
X154940000Y-81345238D01*
X154892381Y-81202380D01*
X154892381Y-81107142D01*
X154940000Y-80964285D01*
X154987619Y-80916666D01*
X154892381Y-80583333D02*
X154892381Y-79964285D01*
X155273333Y-80297619D01*
X155273333Y-80154761D01*
X155320952Y-80059523D01*
X155368571Y-80011904D01*
X155463810Y-79964285D01*
X155701905Y-79964285D01*
X155797143Y-80011904D01*
X155844762Y-80059523D01*
X155892381Y-80154761D01*
X155892381Y-80440476D01*
X155844762Y-80535714D01*
X155797143Y-80583333D01*
D13*
X147176667Y-85204524D02*
X147176667Y-86111667D01*
X147116191Y-86293095D01*
X146995239Y-86414048D01*
X146813810Y-86474524D01*
X146692858Y-86474524D01*
X148446667Y-86474524D02*
X147720953Y-86474524D01*
X148083810Y-86474524D02*
X148083810Y-85204524D01*
X147962858Y-85385952D01*
X147841905Y-85506905D01*
X147720953Y-85567381D01*
D14*
X134238095Y-75452381D02*
X134238095Y-76261905D01*
X134285714Y-76357143D01*
X134333333Y-76404762D01*
X134428571Y-76452381D01*
X134619048Y-76452381D01*
X134714286Y-76404762D01*
X134761905Y-76357143D01*
X134809524Y-76261905D01*
X134809524Y-75452381D01*
X135809524Y-76452381D02*
X135238095Y-76452381D01*
X135523809Y-76452381D02*
X135523809Y-75452381D01*
X135428571Y-75595238D01*
X135333333Y-75690476D01*
X135238095Y-75738095D01*
M02*
