M48
;DRILL file {KiCad 4.0.7-e2-6376~58~ubuntu16.04.1} date Sat Dec 30 20:10:37 2017
;FORMAT={-:-/ absolute / inch / decimal}
FMAT,2
INCH,TZ
T1C0.016
T2C0.024
T3C0.028
T4C0.031
T5C0.033
T6C0.039
T7C0.039
T8C0.043
T9C0.047
T10C0.055
T11C0.098
T12C0.126
T13C0.161
%
G90
G05
M72
T1
X1.7323Y-6.5354
X1.9685Y-6.2205
X2.0079Y-6.6142
X2.4409Y-6.1417
X2.5197Y-6.1811
X2.7559Y-6.9291
X2.7953Y-6.8898
X3.4252Y-7.2441
X3.7795Y-7.2047
X3.9764Y-6.2992
X3.9764Y-7.0866
X4.0551Y-7.3228
T2
X2.9134Y-5.7874
X2.9634Y-5.7374
X3.0134Y-5.7874
T3
X2.6772Y-6.6535
X2.6772Y-6.8535
T4
X1.6921Y-6.063
X1.6921Y-6.363
X1.7921Y-6.063
X1.7921Y-6.363
X1.8921Y-6.063
X1.8921Y-6.363
X1.9921Y-6.063
X1.9921Y-6.363
X2.0472Y-5.4921
X2.0472Y-5.5906
X2.0472Y-5.7874
X2.0921Y-6.063
X2.0921Y-6.363
X2.1921Y-6.063
X2.1921Y-6.363
X2.2394Y-5.7874
X2.2441Y-5.4921
X2.2441Y-5.5906
X2.2921Y-6.063
X2.2921Y-6.363
X2.3425Y-6.7323
X2.3921Y-6.063
X2.3921Y-6.363
X2.4409Y-6.7323
X2.4921Y-6.063
X2.4921Y-6.363
X2.5921Y-6.063
X2.5921Y-6.363
X2.6921Y-6.063
X2.6921Y-6.363
X2.7921Y-6.063
X2.7921Y-6.363
X2.8921Y-6.063
X2.8921Y-6.363
X2.9134Y-6.5504
X2.9134Y-6.8504
X2.9921Y-6.063
X2.9921Y-6.363
X3.189Y-5.7024
X3.189Y-6.1024
X3.189Y-6.2535
X3.189Y-6.6535
X3.4252Y-5.7024
X3.4252Y-6.1024
X3.4252Y-6.2535
X3.4252Y-6.6535
X3.6614Y-5.7024
X3.6614Y-6.1024
X3.6614Y-6.2535
X3.6614Y-6.6535
X3.8976Y-5.7024
X3.8976Y-6.1024
X3.8976Y-6.2535
X3.8976Y-6.6535
X4.0945Y-5.748
X4.0945Y-6.6535
X4.0945Y-7.0535
X4.4882Y-6.0961
X4.4882Y-6.4961
X4.4945Y-5.748
X4.7244Y-5.978
X4.7244Y-6.378
X4.9213Y-5.978
X4.9213Y-6.378
T5
X4.2339Y-5.9268
X4.2339Y-6.0268
X4.2339Y-6.1268
X4.2339Y-6.2268
X4.2339Y-6.3268
X5.1839Y-5.7768
X5.1839Y-5.8768
X5.1839Y-5.9768
X5.1839Y-6.0768
X5.1839Y-6.1768
X5.1839Y-6.2768
X5.1839Y-6.3768
T6
X1.8898Y-6.8504
X1.9898Y-6.8504
X2.0898Y-6.8504
X3.0352Y-7.1181
X3.0852Y-7.0181
X3.1352Y-7.1181
X3.1852Y-7.0181
T7
X4.2488Y-7.2441
X4.6488Y-7.2441
T8
X2.6772Y-7.185
X2.6772Y-7.4606
X4.8031Y-5.4528
X4.8031Y-5.6299
X4.8031Y-6.752
X4.8031Y-6.9291
X5.0591Y-5.4528
X5.0591Y-5.6299
X5.0591Y-6.752
X5.0591Y-6.9291
T9
X2.5197Y-5.8661
X2.6181Y-5.6677
X2.7165Y-5.8661
X2.7913Y-5.5118
X2.8913Y-5.5118
X2.9913Y-5.5118
X3.0913Y-5.5118
X3.1913Y-5.5118
X3.2913Y-5.5118
X3.3913Y-5.5118
X3.437Y-7.4016
X3.4913Y-5.5118
X3.537Y-7.4016
X3.5583Y-7.0472
X3.5913Y-5.5118
X3.637Y-7.4016
X3.6583Y-7.0472
X3.6913Y-5.5118
X3.737Y-7.4016
X3.7583Y-7.0472
X3.7913Y-5.5118
X3.837Y-7.4016
X3.8583Y-7.0472
X3.8913Y-5.5118
X3.937Y-7.4016
X3.9913Y-5.5118
X4.0913Y-5.5118
X4.1913Y-5.5118
X4.2913Y-5.5118
T10
X2.5669Y-7.0866
X2.5669Y-7.4016
X2.6772Y-7.0591
X2.7874Y-7.0866
X2.7874Y-7.4016
T11
X1.5551Y-5.5118
X1.5551Y-6.7323
X4.5078Y-5.5118
X4.5078Y-6.7323
T12
X2.9602Y-7.3681
X3.2602Y-7.3681
T13
X1.5354Y-5.1575
X1.5354Y-7.4016
X5.1181Y-5.1575
X5.1181Y-7.4016
T6
X2.1654Y-7.0866G85X2.2441Y-7.0866
G05
X2.1654Y-7.3228G85X2.2441Y-7.3228
G05
X2.3898Y-7.2441G85X2.3898Y-7.1654
G05
T0
M30
